<?xml version="1.0" encoding="UTF-8" standalone="no"?>
<svg id="svg2" xmlns:rdf="http://www.w3.org/1999/02/22-rdf-syntax-ns#" xmlns="http://www.w3.org/2000/svg" height="12.004" width="12.013" version="1.1" xmlns:cc="http://creativecommons.org/ns#" xmlns:dc="http://purl.org/dc/elements/1.1/" viewBox="0 0 12.013244 12.003791">
 <path id="path3344" d="m11.5 6.0207c0.104-2.3424-1.6289-4.4853-3.797-5.2183-1.1971-0.437-2.5339-0.3696-3.7116 0.097-2.8634 1.0334-4.2991 4.7288-2.9807 7.4502 0.59477 1.2063 1.5812 2.2501 2.8574 2.7298 2.1687 0.8831 4.9503 0.3366 6.3923-1.5781 0.79324-0.9749 1.2447-2.222 1.2397-3.4803z" fill-rule="evenodd" stroke="#97050c" stroke-width="1.0171" fill="#fc5753"/>
 <path id="rect4167" d="m4.0634 3.0148-0.99976 1.1214 1.8845 1.8845l-1.9453 1.9453 1.0605 1.0605c0.6486-0.6484 1.297-1.2969 1.9454-1.9453 0.6485 0.6484 1.2969 1.2969 1.9453 1.9453l1.0606-1.0605c-0.6485-0.6484-1.2969-1.2969-1.9453-1.9453l1.9433-1.9434-1.0605-1.0605c-0.6478 0.6478-1.2956 1.2955-1.9434 1.9433l-1.9453-1.9453z" fill="#97050c"/>
</svg>
